<?xml version="1.0" standalone="no"?>
<!DOCTYPE svg PUBLIC "-//W3C//DTD SVG 20010904//EN"
 "http://www.w3.org/TR/2001/REC-SVG-20010904/DTD/svg10.dtd">
<svg version="1.0" xmlns="http://www.w3.org/2000/svg"
 width="512.000000pt" height="512.000000pt" viewBox="0 0 512.000000 512.000000"
 preserveAspectRatio="xMidYMid meet">
<metadata>
Created by potrace 1.14, written by Peter Selinger 2001-2017
</metadata>
<g transform="translate(0.000000,512.000000) scale(0.100000,-0.100000)"
fill="#000000" stroke="none">
<path d="M2487 5044 c-1 -1 -45 -5 -97 -9 -51 -3 -96 -8 -100 -10 -3 -2 -30
-6 -60 -10 -157 -20 -403 -101 -580 -191 -114 -58 -274 -159 -302 -191 -19
-21 -25 -58 -14 -84 5 -11 -3 -24 -26 -41 -18 -14 -54 -45 -79 -70 -43 -41
-48 -43 -75 -32 -48 20 -72 2 -180 -136 -85 -108 -151 -212 -213 -337 -58
-116 -131 -298 -131 -327 0 -22 -8 -24 -90 -27 -86 -3 -193 -32 -265 -74 -74
-43 -175 -149 -212 -225 -46 -95 -63 -170 -59 -270 4 -104 17 -155 63 -241 90
-174 269 -286 466 -293 43 -2 82 -7 86 -12 5 -5 23 -54 42 -109 58 -173 193
-420 308 -565 138 -173 310 -331 480 -443 l49 -32 -78 -82 c-209 -219 -338
-461 -401 -746 -33 -150 -34 -190 -9 -252 27 -66 94 -130 154 -146 59 -17
1103 -17 1134 0 12 6 25 23 28 36 6 25 8 25 109 25 92 0 104 -2 110 -19 3 -10
14 -26 25 -36 19 -17 59 -18 679 -18 726 0 720 -1 792 61 60 51 89 119 84 196
-12 198 -106 463 -236 661 -66 102 -106 152 -195 244 l-72 74 37 25 c236 159
416 336 562 552 79 117 78 115 134 223 46 88 105 232 131 317 l13 45 55 -1
c198 -7 405 114 498 292 47 90 60 141 64 245 5 159 -47 290 -161 404 -108 108
-242 165 -387 165 -46 0 -70 4 -72 13 -2 6 -20 59 -41 117 -143 402 -434 769
-799 1008 -70 45 -252 142 -331 174 -126 52 -325 108 -440 123 -27 4 -52 9
-55 10 -10 6 -337 24 -343 19z"/>
</g>
</svg>
